<svg width="136" height="40" viewBox="0 0 136 40" fill="none" xmlns="http://www.w3.org/2000/svg">
<path d="M114.834 13.9233H128.516C131.903 13.9233 134.649 16.6689 134.649 20.0558C134.649 23.4427 131.903 26.1883 128.516 26.1883H114.834V13.9233Z" stroke="black" stroke-width="2.70199"/>
<rect x="65.2981" y="13.9233" width="19.8146" height="12.265" rx="6.13252" stroke="black" stroke-width="2.70199"/>
<path fill-rule="evenodd" clip-rule="evenodd" d="M55.3321 15.2743H41.1302V21.0956H55.3322C56.9397 21.0956 58.2428 19.7924 58.2428 18.1849C58.2428 16.5774 56.9397 15.2743 55.3321 15.2743ZM41.1302 12.5723H38.4282V15.2743V21.0956V23.6479V23.7975V27.5393H41.1302V23.7975H55.0444L57.6424 27.5392H60.3444L57.473 23.3748C59.5107 22.5333 60.9448 20.5266 60.9448 18.1849C60.9448 15.0851 58.4319 12.5723 55.3321 12.5723H41.1302Z" fill="black"/>
<path fill-rule="evenodd" clip-rule="evenodd" d="M90.907 27.5393H87.9648L97.3317 12.5723H98.1724L98.1724 12.5722H98.4727V12.5722H100.574V12.5722H101.115L110.481 27.5393H107.539L105.291 23.9471L93.1551 23.9471L90.907 27.5393ZM94.6539 21.5524L98.5879 15.2663H99.8584L103.792 21.5524L94.6539 21.5524Z" fill="black"/>
<path d="M16.7261 10.9363L22.3064 11.1501L18.1989 16.3072L16.7261 10.9363Z" fill="#E05003"/>
<path fill-rule="evenodd" clip-rule="evenodd" d="M20.9511 12.3704L19.084 14.7146C24.2778 18.8271 25.1445 26.359 21.0199 31.5375C16.8952 36.716 9.34123 37.5802 4.14748 33.4677L2.28042 35.8118C8.7726 40.9524 18.2151 39.8722 23.3709 33.3991C28.5266 26.9259 27.4433 17.5111 20.9511 12.3704Z" fill="#E05003"/>
<path fill-rule="evenodd" clip-rule="evenodd" d="M11.5468 27.6295L13.4138 25.2853C8.2201 21.1728 7.35339 13.641 11.478 8.46244C15.6026 3.28392 23.1566 2.41976 28.3504 6.53228L30.2174 4.18814C23.7253 -0.952503 14.2827 0.127702 9.12698 6.60085C3.97122 13.074 5.0546 22.4888 11.5468 27.6295Z" fill="black"/>
</svg>
